<?xml version="1.0" encoding="UTF-8" standalone="no"?>
<!-- Generator: Adobe Illustrator 19.0.0, SVG Export Plug-In . SVG Version: 6.00 Build 0)  -->

<svg
   xmlns:dc="http://purl.org/dc/elements/1.1/"
   xmlns:cc="http://creativecommons.org/ns#"
   xmlns:rdf="http://www.w3.org/1999/02/22-rdf-syntax-ns#"
   xmlns:svg="http://www.w3.org/2000/svg"
   xmlns="http://www.w3.org/2000/svg"
   xmlns:sodipodi="http://sodipodi.sourceforge.net/DTD/sodipodi-0.dtd"
   xmlns:inkscape="http://www.inkscape.org/namespaces/inkscape"
   version="1.1"
   id="Layer_1"
   x="0px"
   y="0px"
   viewBox="0 0 700 700.00002"
   enable-background="new 0 0 1296 2057.961"
   xml:space="preserve"
   sodipodi:docname="havaianas-logo.svg"
   width="700"
   height="700"
   inkscape:export-filename="G:\Users\suitedoalex\sites\havaianas-logo-0.png"
   inkscape:export-xdpi="561.73712"
   inkscape:export-ydpi="561.73712"
   inkscape:version="0.92.4 (5da689c313, 2019-01-14)"><metadata
   id="metadata79"><rdf:RDF><cc:Work
       rdf:about=""><dc:format>image/svg+xml</dc:format><dc:type
         rdf:resource="http://purl.org/dc/dcmitype/StillImage" /><dc:title></dc:title></cc:Work></rdf:RDF></metadata><defs
   id="defs77" /><sodipodi:namedview
   pagecolor="#ffffff"
   bordercolor="#666666"
   borderopacity="1"
   objecttolerance="10"
   gridtolerance="10"
   guidetolerance="10"
   inkscape:pageopacity="0"
   inkscape:pageshadow="2"
   inkscape:window-width="1600"
   inkscape:window-height="837"
   id="namedview75"
   showgrid="false"
   inkscape:zoom="0.45870647"
   inkscape:cx="1127.4349"
   inkscape:cy="-113.67219"
   inkscape:window-x="-8"
   inkscape:window-y="-8"
   inkscape:window-maximized="1"
   inkscape:current-layer="Layer_1" />













<path
   d="m 1343.0216,92.383608 c -23.8299,-23.08736 -55.7689,-41.64673 -95.8091,-55.46088 -40.2898,-13.55801 -85.2437,-20.69772 -135.1163,-20.93928 -49.6246,0.24156 -94.5786,7.38127 -134.86677,20.93928 -40.04662,13.81415 -71.98242,32.37352 -95.8139,55.46088 -23.825,23.085772 -35.86557,49.267972 -36.60321,78.061872 0.73764,28.5622 12.77821,54.5028 36.60321,77.8236 23.83148,23.0841 55.76728,41.6548 95.8139,55.4593 40.04017,13.5645 84.99897,20.7009 134.86677,20.9376 49.8726,-0.2367 94.8265,-7.3731 135.1163,-20.9376 40.0385,-13.8045 71.9776,-32.3752 95.8091,-55.4593 23.8282,-23.3208 35.8655,-49.2614 36.6048,-77.8236 -0.7393,-28.7956 -12.7766,-54.9761 -36.6048,-78.061872 z m -4.4794,144.856572 c -23.2802,19.819 -54.5789,35.7764 -93.8814,47.3565 -39.3074,11.8509 -83.3664,18.8836 -132.1934,19.1365 -48.814,-0.2512 -92.625,-7.2856 -131.93237,-19.1365 -39.30411,-11.5801 -70.85083,-27.5375 -94.1311,-47.3565 -23.28352,-19.8256 -35.05335,-42.2174 -35.54944,-66.9244 0.49609,-24.4637 12.26592,-46.854 35.54944,-66.66977 23.28027,-19.828772 54.82699,-35.784512 94.1311,-47.627292 39.30897,-11.58502 83.11837,-19.2646 131.93237,-19.52074 48.827,0.25614 92.886,7.93734 132.1934,19.52074 39.3025,11.84278 70.6012,27.7969 93.8814,47.627292 23.2787,19.81577 35.2982,42.20607 35.8007,66.66977 -0.5009,24.707 -12.522,47.1005 -35.8007,66.9244 z m -289.9026,-91.9669 c -1.1738,-0.037 -3.5991,0 -5.0646,0.057 -1.4542,0.053 -2.7431,1.0749 -3.1014,2.2892 -2.4658,8.3734 -11.2899,38.5503 -11.6579,39.6705 -0.4313,1.3067 -1.4202,1.1981 -1.6472,0.094 -0.2269,-1.104 -6.9046,-38.6475 -7.1413,-39.6932 -0.2918,-1.2726 -0.6695,-2.2291 -2.9668,-2.2956 -2.7446,-0.089 -6.9046,-0.1767 -8.2648,-0.1994 -2.1043,-0.026 -3.3996,0.4345 -2.8954,2.3199 0.4328,1.639 10.4534,41.6711 13.0716,52.1407 0.3956,1.5807 2.0703,2.3167 3.6704,2.1206 1.3893,-0.1768 2.8938,-0.3729 3.672,-0.5221 1.6747,-0.2999 3.0478,-0.1653 4.6528,0.2092 0.5966,0.1394 1.3148,0.295 1.9714,0.4247 1.1024,0.2254 2.4852,-1.0262 2.897,-2.5355 0.3551,-1.2954 11.551,-40.2056 14.5421,-50.6217 0.5674,-1.9487 -0.214,-3.4045 -1.7379,-3.458 z m -43.2793,54.1607 c -1.5174,-1.3261 -3.6477,-3.0429 -4.5653,-3.8876 -0.4425,-0.4085 -0.689,-0.8641 -0.629,-1.5547 0.5723,-6.0778 3.1354,-33.4727 3.197,-34.2071 0.2367,-2.6053 -0.4685,-4.5069 -2.4431,-6.6048 -2.05408,-2.1886 -4.34969,-4.6512 -4.72905,-5.0305 -2.02486,-2.0119 -4.79223,-3.0511 -7.91788,-3.0673 -4.12269,-0.016 -11.05814,-0.2951 -11.70337,-0.3048 -2.80628,-0.063 -4.62201,0.3551 -7.14944,1.9276 -2.17726,1.3586 -4.78575,3.0138 -5.23806,3.3283 -1.52068,1.0732 -2.39288,2.1854 -2.6701,3.8033 -0.42962,2.5388 -1.13159,6.6047 -1.22076,7.2078 -0.27722,1.8352 0.47501,2.6134 2.00217,2.5323 0.51392,-0.032 4.90572,-0.3193 7.40883,-0.4669 1.52879,-0.086 2.24697,-0.509 2.86465,-2.3523 0.1459,-0.4507 1.46879,-4.2443 2.19346,-6.3064 0.53175,-1.438 1.17861,-1.8433 2.44314,-2.0606 1.70873,-0.3048 3.97191,-0.5917 4.41449,-0.6485 1.31641,-0.1523 2.16105,-0.016 3.25535,0.6972 0.46366,0.2999 3.24076,2.2421 3.59904,2.4982 0.48312,0.3405 1.40557,1.3164 1.41206,2.7042 0,0.5576 0.12483,8.6312 0.12483,8.6312 0,0 -0.0308,1.365 -1.65199,0.8414 -2.30209,-0.749 -8.19187,-2.7593 -10.80361,-2.247 -1.72494,0.3421 -4.70307,1.4623 -5.56392,1.8368 -1.80762,0.7798 -4.48907,1.9795 -7.32129,3.3753 -2.9992,1.4785 -3.99299,2.4156 -4.48421,2.855 -1.85139,1.6893 -1.93245,3.9476 -2.06215,6.0454 -0.20913,3.3996 -0.71819,10.7955 -0.70197,11.3402 0.0843,2.5258 0.9111,4.7339 3.16131,6.441 3.08188,2.3361 7.21267,5.4115 7.87088,5.9141 2.0735,1.5952 6.00975,1.6179 7.82224,0.6971 3.99785,-2.0313 12.45073,-6.3891 12.63392,-6.4945 0.20914,-0.1167 0.5204,-0.092 0.6501,0.3259 0.0875,0.2723 0.14428,0.4685 0.20913,0.7003 0.10214,0.4183 0.47501,0.9468 0.8949,1.3035 1.88382,1.5758 5.80386,4.9332 6.05676,5.1472 1.35207,1.1543 2.67496,1.1397 3.88114,0.4848 3.0024,-1.6277 4.6042,-2.6345 4.8522,-2.7674 1.451,-0.809 1.0133,-1.6731 -0.092,-2.6377 z m -16.90414,-9.9135 c -0.68738,0.355 -5.71631,2.9311 -8.47558,4.348 -1.08133,0.5577 -2.56958,0.5707 -3.6039,0.065 -0.71332,-0.355 -3.04459,-1.5822 -4.35451,-2.2113 -1.1089,-0.5333 -1.74278,-1.6779 -1.9584,-3.1321 -0.11673,-0.7976 -0.37125,-5.2527 -0.52851,-7.9146 -0.13131,-1.0181 0.19617,-2.6766 1.23373,-3.5164 0.56903,-0.4523 2.75278,-1.6066 3.88274,-2.2518 1.50447,-0.8479 3.31047,-1.5466 4.34317,-1.9471 1.54013,-0.5966 2.95219,-0.4442 5.99678,0.3713 0.76682,0.2059 3.21482,0.8446 3.72711,1.1672 0.89652,0.6485 1.00676,1.6844 1.01,2.4318 0,0.5318 0.0227,7.5175 0.0324,10.1179 0,1.0651 -0.3518,1.9778 -1.30506,2.4723 z m 109.63774,9.8925 c -1.5174,-1.3246 -3.6476,-3.0446 -4.562,-3.8844 -0.4426,-0.4085 -0.6971,-0.8673 -0.6306,-1.558 0.5723,-6.0746 3.1354,-33.4776 3.197,-34.2039 0.2399,-2.6085 -0.4686,-4.5085 -2.4448,-6.6128 -2.0524,-2.1773 -4.3496,-4.6431 -4.7258,-5.0241 -2.0232,-2.0102 -4.7954,-3.0527 -7.9211,-3.0689 -4.1243,-0.016 -11.0646,-0.2918 -11.7034,-0.3015 -2.8046,-0.066 -4.6268,0.3485 -7.1526,1.926 -2.1741,1.3666 -4.7825,3.0137 -5.2349,3.3315 -1.5239,1.0732 -2.3928,2.1854 -2.6701,3.7984 -0.4312,2.5388 -1.1315,6.6064 -1.2223,7.2143 -0.2756,1.8304 0.475,2.6085 1.9973,2.5275 0.5155,-0.029 4.9041,-0.3162 7.4169,-0.4653 1.5255,-0.088 2.2389,-0.5074 2.8582,-2.3556 0.1491,-0.4426 1.4736,-4.241 2.1967,-6.3048 0.5333,-1.438 1.177,-1.8433 2.4447,-2.0605 1.7071,-0.3016 3.9671,-0.5918 4.4113,-0.6453 1.3196,-0.1588 2.1627,-0.016 3.2586,0.6971 0.462,0.2951 3.2407,2.2373 3.5974,2.4951 0.4831,0.342 1.4104,1.3164 1.4104,2.7073 0,0.5512 0.1297,8.628 0.1297,8.628 0,0 -0.034,1.3667 -1.6536,0.8398 -2.3037,-0.7458 -8.1951,-2.7577 -10.8004,-2.2421 -1.7298,0.3421 -4.7079,1.4623 -5.5687,1.8335 -1.8044,0.7782 -4.4891,1.9795 -7.3246,3.3754 -2.9911,1.4785 -3.9897,2.4123 -4.4793,2.8565 -1.8514,1.6845 -1.9325,3.946 -2.0622,6.0455 -0.2091,3.398 -0.7182,10.7906 -0.6987,11.345 0.084,2.5226 0.9111,4.7274 3.1613,6.4345 3.0819,2.3329 7.2111,5.4148 7.8677,5.9141 2.0767,1.5985 6.0146,1.618 7.8238,0.7004 3.9962,-2.0314 12.4572,-6.3924 12.6307,-6.4945 0.2156,-0.1167 0.5236,-0.092 0.6566,0.3226 0.084,0.274 0.141,0.4718 0.2042,0.702 0.107,0.4183 0.4815,0.9468 0.8998,1.3002 1.8871,1.579 5.7974,4.9333 6.0551,5.1521 1.3537,1.1527 2.6718,1.1365 3.8763,0.4831 3.0057,-1.626 4.6091,-2.6328 4.8603,-2.7689 1.4413,-0.8074 1.0068,-1.6715 -0.099,-2.6393 z m -16.9041,-9.912 c -0.6841,0.3583 -5.7147,2.9392 -8.4772,4.348 -1.0765,0.5577 -2.568,0.5756 -3.5974,0.067 -0.7198,-0.3534 -3.0446,-1.5839 -4.3561,-2.2129 -1.1089,-0.5318 -1.7428,-1.6779 -1.9568,-3.1289 -0.12,-0.8009 -0.368,-5.2591 -0.5285,-7.9195 -0.1362,-1.0165 0.1961,-2.6782 1.2353,-3.5083 0.5609,-0.4523 2.7496,-1.6131 3.8795,-2.255 1.5045,-0.8512 3.3089,-1.5515 4.3448,-1.952 1.532,-0.5998 2.9522,-0.4409 5.9903,0.3729 0.7684,0.2124 3.2164,0.8398 3.7385,1.1673 0.8932,0.6468 1.0035,1.6844 1.0035,2.4318 0,0.5317 0.021,7.5174 0.028,10.1162 0,1.0651 -0.3486,1.9794 -1.3035,2.4739 z m 247.5118,-40.0856 c 0,-1.7136 -1.0359,-2.4317 -3.0738,-2.4317 h -3.2083 v 8.4528 h 1.3894 v -3.6136 h 1.3066 l 2.1838,3.6136 h 1.5709 l -2.3669,-3.7157 c 1.2613,-0.1427 2.1983,-0.775 2.1983,-2.3054 z m -4.8927,1.2273 v -2.4707 h 1.673 c 0.8333,0 1.8368,0.1216 1.8368,1.1413 0,1.2256 -0.9176,1.3294 -1.96,1.3294 z m -376.46772,0.6906 c -1.71846,-2.328 -2.55661,-2.422 -5.91409,-2.4139 -0.59012,0 -7.33264,0.084 -9.87791,0.1718 -2.54527,0.092 -4.34965,0.6841 -5.90599,1.9762 -0.97272,0.8041 -3.2359,3.6315 -3.50177,3.9184 -0.1913,0.2059 -0.57228,0.8885 -0.98406,0.8058 -0.46528,-0.096 -0.47501,-0.5447 -0.40692,-1.331 0.30478,-3.5926 1.24669,-18.373 1.51905,-23.0533 0.14429,-1.592 -0.54309,-2.8306 -2.34099,-2.8306 -0.7036,0 -7.61635,0.2286 -10.49558,0.2286 -1.56607,0 -2.50474,1.1024 -2.48366,2.6247 0.008,0.7311 0.80248,59.6128 0.9338,68.9865 0.0113,0.7879 0.46366,1.2191 1.31641,1.2029 0.65658,0 5.45854,-0.053 7.63093,-0.079 0.65659,0 1.11376,-0.5059 1.11376,-0.9695 0,-0.394 1.45097,-23.6207 1.82708,-31.5273 0.107,-2.7642 1.07971,-6.1832 2.27291,-7.1592 1.19319,-0.9743 3.76278,-2.9635 4.87653,-3.7612 1.1089,-0.8008 1.93408,-0.8268 2.84519,-0.8268 1.25967,0 3.38504,0.05 4.45665,0.08 1.41854,0.044 1.43637,0.1686 2.62471,0.997 0.58849,0.4183 1.43637,1.0295 2.17725,1.5936 1.224,0.9257 1.79466,1.6942 1.77358,3.4434 -0.008,0.3681 0.73278,28.2477 0.85599,35.0761 0,1.8774 0.30641,3.304 2.20968,3.304 0.49447,0 3.40288,0.029 5.35317,0.029 1.79303,0 1.91787,-1.472 2.06053,-3.1175 0.034,-0.4572 1.44772,-28.1731 2.08971,-35.3031 0.23994,-2.996 -0.2983,-4.4453 -1.7217,-6.4118 -0.34369,-0.4815 -2.49987,-3.2375 -4.30426,-5.6531 z m 377.97862,-7.8968 c -4.0432,0 -7.5126,3.0446 -7.5126,7.6342 0,4.348 3.1241,7.6309 7.5126,7.6309 3.9962,0 7.4672,-3.0365 7.4672,-7.6309 0,-4.5896 -3.471,-7.6342 -7.4672,-7.6342 z m 0,13.9422 c -3.6396,0 -5.8817,-2.8419 -5.8817,-6.308 0,-3.7158 2.5761,-6.3081 5.8817,-6.3081 3.2651,0 5.8363,2.5923 5.8363,6.3081 0,3.7368 -2.5712,6.308 -5.8363,6.308 z m -130.6986,37.1869 c -2.9133,0.154 -4.2735,0.2448 -5.0468,0.3226 -1.6131,0.1605 -2.555,0.4637 -2.9489,3.317 -0.454,3.2456 -0.2335,5.1651 -3.2538,6.4653 -2.9748,1.2791 -3.98,1.4736 -5.4374,1.6406 -2.6134,0.308 -3.2894,0.3988 -5.7698,-0.1037 -3.3851,-0.702 -4.708,-1.7412 -6.4945,-4.7469 -0.4426,-0.7198 -1.5402,-2.4999 -2.5664,-5.3548 -0.1767,-0.4717 -0.4896,-1.7525 -0.4474,-2.4399 0.3696,-6.0437 1.1916,-33.0107 1.2337,-33.7402 0.1459,-2.5907 0.5204,-4.6171 -1.4931,-6.6971 -2.0962,-2.1789 -4.5312,-4.7533 -4.9171,-5.1278 -1.9,-1.8352 -3.766,-2.4205 -7.0522,-2.4302 -4.0772,-0.016 -12.0908,-0.2626 -12.7247,-0.2789 -2.7771,-0.063 -2.5258,-0.1329 -5.0889,1.2354 -2.4788,1.318 -5.859,3.8795 -6.8171,4.421 -1.579,0.8933 -2.101,2.0394 -2.3199,3.6509 -0.3064,2.2032 -1.0165,4.695 -1.2872,7.0424 -0.2092,1.8239 0.5528,2.5939 2.0589,2.5113 0.509,-0.029 4.8344,-0.3162 7.3083,-0.4653 1.5045,-0.086 2.3621,-0.4491 2.9165,-2.2827 0.1313,-0.4393 1.4299,-3.8243 2.0816,-5.8703 0.475,-1.4282 1.2613,-2.4237 2.5242,-2.5971 2.0541,-0.2805 2.4545,-0.4394 3.7531,-0.5982 2.4853,-0.2983 2.9441,-0.026 3.7514,0.3988 0.4896,0.2496 2.0751,1.4218 3.5877,2.4058 1.0084,0.6582 1.8368,1.3683 1.7671,3.4159 -0.019,0.5479 0.1848,5.2315 0.1021,6.1086 -0.071,0.8803 0.5901,3.1986 -1.0959,2.9927 -2.0638,-0.2496 -4.2832,-1.6179 -8.4675,-2.1837 -0.7052,-0.1005 -2.3669,-0.3697 -3.7352,0.074 -1.9876,0.6485 -5.452,1.9941 -5.8557,2.1676 -3.2716,1.3942 -3.9379,1.7817 -8.1481,3.9184 -2.769,1.3959 -4.087,3.069 -4.4405,6.086 -0.3971,3.4077 -0.7538,12.0551 -0.7846,12.6015 -0.1913,3.0203 1.1575,5.4456 3.4369,7.1429 3.1192,2.3216 6.6031,4.9625 7.4575,5.5705 2.0638,1.4688 5.4034,2.1043 8.1821,0.6517 3.8779,-2.0168 11.6402,-5.8995 11.8136,-6.0049 0.2059,-0.1167 0.9436,-0.6566 1.0878,-0.2448 0.096,0.2723 0.4297,1.1429 0.4896,1.3715 0.1249,0.4118 0.6615,0.9257 1.0473,1.318 1.9973,2.0168 3.6137,3.779 5.1927,5.4278 3.6963,3.8503 4.2086,4.1697 8.6944,5.2283 4.8571,1.1462 5.183,1.2224 6.1168,1.3861 0.9289,0.1654 1.699,0.749 8.6717,-0.3161 6.9711,-1.0716 7.404,-1.2305 8.1303,-1.3586 0.723,-0.1199 3.5423,-0.3647 4.6901,-5.0289 1.1478,-4.6609 1.7865,-7.2645 1.9487,-8.2454 0.1572,-0.9759 1.0635,-2.9051 -1.8514,-2.7576 z m -42.8043,-7.9649 c -0.057,1.7898 -0.096,2.9198 -1.4477,3.531 -0.6923,0.3096 -5.0452,2.6214 -7.7298,4.0335 -1.3051,0.6874 -2.7836,1.0165 -4.4632,0.1815 -1.5677,-0.7846 -2.1772,-0.9759 -4.0983,-2.1075 -1.3083,-0.7279 -2.0395,-1.9065 -2.1287,-3.3688 -0.1134,-1.8255 -0.4036,-6.2594 -0.4863,-7.9033 -0.079,-1.6277 0.3599,-2.7998 2.341,-4.0303 0.8997,-0.548 4.6885,-2.4221 5.9627,-3.03 1.5904,-0.762 3.8665,-0.8479 4.7793,-0.6615 0.7765,0.1622 4.4874,1.203 5.7536,1.5791 1.1494,0.3388 1.545,1.7022 1.5174,2.8127 -0.058,2.0817 0.019,8.1157 0,8.9636 z m 57.3269,-36.9696 c -1.2159,-1.3181 -2.7771,-1.6666 -4.3837,-1.6666 -3.484,0 -8.294,0.2561 -10.0514,0.3615 -2.6636,0.1589 -3.8617,0.8219 -5.097,2.2664 -1.3067,1.5175 -3.1711,3.5131 -3.5002,3.8098 -1.7703,1.5985 -1.9535,0.9468 -1.8822,-0.8543 0.037,-1.0571 0.3129,-4.1179 0.4183,-5.444 0.1816,-2.3378 -1.2953,-2.9214 -3.2083,-2.9392 -2.294,-0.016 -5.0938,-0.037 -6.2886,-0.037 -3.7466,0 -4.4664,-0.073 -4.4664,4.4453 0,3.3267 0.1589,38.0396 0.1767,48.686 0,1.994 1.2662,3.1435 2.6296,3.1435 1.3634,0 4.6998,-0.049 5.7066,-0.049 1.0148,0 2.1578,-1.2434 2.2972,-3.218 0.5771,-8.3848 2.0184,-31.1512 2.1481,-32.513 0.1556,-1.6942 0.9208,-2.9441 1.9308,-3.7369 1.806,-1.425 4.2459,-3.1986 5.0338,-3.9233 0.8673,-0.7814 1.8546,-1.0294 3.0251,-1.0294 1.9195,0 3.1922,0.05 4.4307,0.107 1.0117,0.041 1.8044,0.2026 2.6815,0.7182 0.9776,0.5739 2.3734,2.2615 2.8306,2.7301 0.7928,0.8073 1.1835,1.1526 1.1835,2.6782 0,7.5353 0.582,33.0982 0.582,34.901 0,2.1545 0.7895,3.2375 1.9373,3.2877 1.605,0.063 3.8017,0.047 4.5653,0.047 1.3261,0 2.101,-0.9209 2.2875,-2.581 0.9062,-7.8011 2.9748,-31.7024 3.2553,-34.3141 0.4637,-4.3837 -0.3096,-5.3078 -2.4253,-7.9374 -2.2778,-2.8338 -4.2248,-5.204 -5.8168,-6.9386 z m 60.3909,49.7997 c -1.5207,-1.3278 -3.6558,-3.043 -4.562,-3.8876 -0.4426,-0.4118 -0.6971,-0.8641 -0.6372,-1.5531 0.5739,-6.0811 3.137,-33.4728 3.2035,-34.2055 0.2383,-2.6053 -0.4718,-4.5102 -2.448,-6.6112 -2.0492,-2.1854 -4.3464,-4.648 -4.7209,-5.029 -2.0313,-2.007 -4.7971,-3.0559 -7.9227,-3.0624 -4.1227,-0.02 -11.0647,-0.2951 -11.705,-0.3096 -2.8063,-0.06 -4.6237,0.355 -7.1479,1.9308 -2.1772,1.3585 -4.7841,3.0122 -5.2396,3.3267 -1.524,1.0748 -2.3929,2.1837 -2.6685,3.8049 -0.4312,2.5388 -1.1348,6.6047 -1.2256,7.2111 -0.2724,1.8287 0.4815,2.6068 2.0005,2.5258 0.5204,-0.029 4.9041,-0.3194 7.417,-0.4653 1.5223,-0.086 2.2388,-0.5091 2.8533,-2.3491 0.154,-0.4491 1.472,-4.2475 2.1967,-6.3048 0.5398,-1.4413 1.1818,-1.8466 2.4496,-2.067 1.7071,-0.3016 3.9589,-0.5918 4.4129,-0.642 1.3196,-0.1589 2.1626,-0.016 3.2585,0.6971 0.4572,0.2999 3.2343,2.2356 3.5991,2.4966 0.4815,0.3388 1.4088,1.3132 1.4137,2.7025 0,0.5577 0.1183,8.6296 0.1183,8.6296 0,0 -0.029,1.3634 -1.6471,0.8414 -2.3021,-0.7473 -8.1968,-2.7609 -10.802,-2.2453 -1.7282,0.3453 -4.7112,1.4655 -5.5688,1.8368 -1.8011,0.7798 -4.4907,1.9778 -7.3245,3.3753 -2.9976,1.4785 -3.9914,2.414 -4.4794,2.8533 -1.853,1.6845 -1.9324,3.9525 -2.067,6.0455 -0.2091,3.3963 -0.7149,10.7922 -0.6955,11.3402 0.081,2.5274 0.9111,4.7338 3.163,6.441 3.077,2.3393 7.2143,5.4115 7.866,5.9141 2.0767,1.5968 6.0146,1.6195 7.8222,0.6971 3.9914,-2.0298 12.4507,-6.3924 12.6307,-6.4913 0.2189,-0.1199 0.522,-0.099 0.6501,0.3226 0.091,0.2724 0.1475,0.4702 0.2075,0.7004 0.1086,0.415 0.4783,0.95 0.903,1.3067 1.8822,1.5725 5.7974,4.9268 6.0552,5.1456 1.3536,1.1559 2.6717,1.1381 3.8762,0.4864 3.0057,-1.6277 4.6107,-2.6377 4.8522,-2.7739 1.451,-0.8025 1.0165,-1.6698 -0.088,-2.6344 z m -16.9058,-9.9168 c -0.6841,0.355 -5.7195,2.9376 -8.4788,4.3513 -1.0765,0.5544 -2.5712,0.5722 -3.6039,0.065 -0.7101,-0.3518 -3.043,-1.5807 -4.3529,-2.2178 -1.1105,-0.5269 -1.7379,-1.6747 -1.9584,-3.124 -0.1135,-0.7976 -0.3712,-5.2511 -0.5236,-7.9195 -0.133,-1.0149 0.1929,-2.6766 1.2353,-3.5099 0.5626,-0.4523 2.7431,-1.6082 3.8811,-2.2518 1.5045,-0.8512 3.304,-1.5499 4.3465,-1.9519 1.5304,-0.5983 2.944,-0.4475 5.9886,0.3761 0.7701,0.2042 3.2116,0.8381 3.732,1.1672 0.8949,0.6453 1.0035,1.6747 1.01,2.4253 0,0.535 0.023,7.5207 0.026,10.1211 0,1.0651 -0.3501,1.9779 -1.3018,2.4691 z m -143.2093,-47.0713 c -4.1859,0 -7.5742,3.3915 -7.5742,7.5742 0,4.1794 3.3883,7.5677 7.5742,7.5677 4.1745,0 7.5709,-3.3883 7.5709,-7.5677 0,-4.1843 -3.3964,-7.5742 -7.5709,-7.5742 z m 3.8195,19.7655 c -2.5323,0.029 -6.3291,0.071 -7.7169,0.071 -2.1497,0 -3.0446,0.595 -3.0219,2.9538 0.023,1.9519 0.07,27.0026 0.089,35.5397 0,1.7704 1.0295,2.8436 2.6134,2.8841 1.5985,0.044 2.0054,0.023 4.0124,0.083 2.0055,0.063 2.923,-0.9938 3.0787,-2.7641 0.7636,-8.7966 3.0527,-35.175 3.1597,-36.3601 0.1216,-1.4218 -0.8025,-2.4253 -2.2146,-2.4075 z m 198.6102,11.1701 c -1.1672,-1.7477 -1.5336,-1.665 -7.0375,-3.1225 -3.0965,-0.8235 -13.4251,-3.6314 -15.959,-4.3415 -3.5634,-1.0068 -3.9557,-1.5677 -4.28,-4.3513 -0.1005,-0.903 -0.1945,-2.2567 -0.3242,-3.9962 -0.12,-1.618 0.073,-2.08 1.4883,-2.8695 0.9127,-0.5058 4.0529,-2.3151 5.3758,-3.0268 1.6407,-0.877 2.9506,-0.5074 4.9365,0.2886 1.0165,0.402 4.2459,1.7638 5.4618,2.2664 1.1284,0.4718 1.1154,0.8317 2.4642,3.4985 0.6339,1.2483 1.7088,1.0295 2.5064,0.6744 0.8511,-0.3712 4.8781,-2.5079 5.7147,-2.9716 1.592,-0.8998 1.9114,-1.5807 1.3277,-2.4139 -0.8154,-1.1657 -0.9743,-1.3181 -1.5709,-2.1335 -0.6566,-0.8901 -1.1494,-1.4526 -2.3831,-2.9571 -1.4056,-1.7136 -1.2354,-1.5547 -4.1811,-2.1594 -2.0638,-0.4312 -10.3788,-2.1302 -12.869,-2.6134 -1.4088,-0.2723 -2.1643,-0.074 -3.5861,0.5334 -1.4266,0.6144 -7.1397,3.1743 -8.6604,3.8844 -3.5585,1.6763 -4.1778,1.7039 -4.622,2.5436 -0.6338,1.2094 -0.3745,0.6242 -1.9973,3.8244 -1.9032,3.7839 -2.4253,4.5021 -2.0475,5.7974 0.663,2.2486 2.0281,5.6741 3.1548,8.8906 1.1559,3.2926 1.224,3.732 7.9033,5.5024 3.8536,1.0213 15.5245,4.0918 16.9366,4.5668 2.2972,0.7636 2.5663,1.1284 3.539,3.2457 0.4296,0.9403 1.0149,2.4382 1.3375,3.2553 0.5431,1.3764 1.2629,2.7236 0.9695,4.4388 -0.368,2.1286 -2.5502,2.7269 -3.7434,3.3883 -1.4234,0.7912 -4.5636,2.3621 -6.2529,3.1289 -2.1967,0.9906 -2.4869,1.2775 -5.4747,-0.1735 -2.5761,-1.2499 -3.3527,-1.7281 -5.1392,-2.6441 -1.104,-0.561 -1.0068,-0.415 -1.8887,-1.4105 -0.7587,-0.8446 -1.9422,-2.054 -2.8614,-3.1775 -1.3261,-1.6163 -2.4042,-1.1948 -3.9054,-0.4426 -1.2175,0.608 -5.5996,2.8857 -6.715,3.5018 -1.044,0.5642 -1.0359,1.5644 -0.3761,2.2145 1.237,1.2403 4.0611,3.839 5.0419,4.7226 1.9243,1.7363 3.4272,3.0867 5.1424,3.5488 3.4077,0.9175 9.1905,2.4285 13.0927,3.4288 4.7063,1.2061 3.5991,0.9013 7.6504,-0.7117 1.4007,-0.5577 9.1289,-3.6834 10.9625,-4.5977 2.1983,-1.1008 2.4934,-1.3991 3.5439,-5.076 0.5253,-1.8027 1.9633,-6.9062 2.4448,-8.6312 0.5771,-2.0816 0.7133,-3.7174 -0.4005,-5.5866 -0.6063,-1.0149 -3.7011,-6.214 -4.7193,-7.7363 z"
   id="path42"
   inkscape:connector-curvature="0"
   style="fill:#ee3124;stroke-width:1.62118912"
   inkscape:export-filename="G:\Users\suitedoalex\sites\havaianas-logo-7.png"
   inkscape:export-xdpi="71.800659"
   inkscape:export-ydpi="71.800659" />


<path
   d="m 617.799,322.86544 c 0,-2.2016 -1.32845,-3.12465 -3.94167,-3.12465 h -4.11423 v 10.84375 h 1.78165 v -4.63396 h 1.67563 l 2.80033,4.63396 h 2.0145 l -3.03526,-4.76701 c 1.61742,-0.17879 2.81905,-0.99373 2.81905,-2.95209 z m -6.27425,1.56752 v -3.16623 h 2.14547 c 1.06858,0 2.35544,0.15592 2.35544,1.46357 0,1.57376 -1.17668,1.70266 -2.51344,1.70266 z m 1.93758,-9.23466 c -5.18488,0 -9.63382,3.89802 -9.63382,9.7835 0,5.5778 4.00612,9.78557 9.63382,9.78557 5.12459,0 9.5756,-3.89178 9.5756,-9.78557 0,-5.88548 -4.45101,-9.7835 -9.5756,-9.7835 z m 0,17.87266 c -4.66723,0 -7.5424,-3.64647 -7.5424,-8.08916 0,-4.76701 3.30344,-8.08708 7.5424,-8.08708 4.18698,0 7.48418,3.32007 7.48418,8.08708 -0.002,4.79403 -3.2972,8.08916 -7.48418,8.08916 z m -167.60216,47.69298 c -3.73585,0.19542 -5.48009,0.31184 -6.47174,0.41371 -2.06855,0.20373 -3.27641,0.5925 -3.78159,4.25143 -0.58211,4.16204 -0.29937,6.62351 -4.17244,8.29082 -3.81485,1.63612 -5.1038,1.88768 -6.97277,2.10389 -3.35125,0.39292 -4.21817,0.51142 -7.39895,-0.13721 -4.34083,-0.89811 -6.03724,-2.23279 -8.32823,-6.08299 -0.56755,-0.92097 -1.975,-3.2078 -3.29097,-6.86674 -0.2266,-0.60497 -0.62784,-2.24941 -0.57378,-3.13088 0.47399,-7.75237 1.52802,-42.3314 1.58207,-43.26484 0.1871,-3.32423 0.66734,-5.92082 -1.91471,-8.59018 -2.68807,-2.7941 -5.81063,-6.09338 -6.30542,-6.57569 -2.43652,-2.35336 -4.82938,-3.10594 -9.0434,-3.11426 -5.22853,-0.0208 -15.50474,-0.33886 -16.3176,-0.35965 -3.56123,-0.079 -3.23899,-0.17048 -6.5258,1.58623 -3.1787,1.69018 -7.51329,4.97282 -8.74194,5.66927 -2.02489,1.1455 -2.69431,2.61531 -2.97497,4.68177 -0.39292,2.82529 -1.30349,6.01854 -1.65068,9.02884 -0.26818,2.34089 0.70892,3.32839 2.64026,3.22444 0.65278,-0.0374 6.1994,-0.40955 9.37186,-0.60081 1.92926,-0.10811 3.02902,-0.57587 3.74002,-2.92507 0.16839,-0.56547 1.83362,-4.90214 2.66936,-7.52993 0.60913,-1.82946 1.61741,-3.10801 3.23691,-3.32838 2.63402,-0.35966 3.14751,-0.56755 4.81275,-0.76713 3.18701,-0.38252 3.77535,-0.0333 4.81067,0.50934 0.62784,0.32224 2.66104,1.82323 4.60069,3.08515 1.2931,0.84405 2.35544,1.7567 2.26605,4.38241 -0.0249,0.7006 0.237,6.70874 0.13097,7.83137 -0.0915,1.13094 0.75674,4.10591 -1.40536,3.83772 -2.6465,-0.31808 -5.49257,-2.0727 -10.85831,-2.80033 -0.90434,-0.12682 -3.03526,-0.46984 -4.78988,0.0956 -2.54878,0.83158 -6.99148,2.5571 -7.50914,2.78162 -4.1953,1.78581 -5.04974,2.28684 -10.44875,5.0248 -3.55083,1.79205 -5.24101,3.93128 -5.69422,7.80435 -0.50934,4.36993 -0.96671,15.459 -1.00621,16.1596 -0.24531,3.87307 1.48436,6.98317 4.40736,9.15982 3.99988,2.97704 8.46752,6.36364 9.56312,7.14324 2.6465,1.88352 6.92911,2.69638 10.49242,0.83573 4.97282,-2.59036 14.92679,-7.56526 15.14924,-7.70247 0.26403,-0.14969 1.20994,-0.8399 1.39497,-0.316 0.12266,0.34926 0.55092,1.46981 0.62784,1.76294 0.16008,0.52389 0.84821,1.185 1.343,1.68602 2.56125,2.59036 4.63395,4.84809 6.65884,6.96029 4.73999,4.94165 5.39693,5.3512 11.14936,6.70875 6.22851,1.46981 6.64638,1.56752 7.84385,1.77749 1.19123,0.2079 2.17873,0.95839 11.12025,-0.40539 8.93945,-1.37626 9.49452,-1.58 10.42589,-1.74215 0.92721,-0.15385 4.54249,-0.46777 6.01438,-6.44888 1.47189,-5.9728 2.29099,-9.31781 2.49888,-10.57765 0.20166,-1.24944 1.36379,-3.7213 -2.37415,-3.53004 z m -54.89027,-10.218 c -0.0728,2.29515 -0.12266,3.74833 -1.8565,4.52794 -0.88771,0.39707 -6.46966,3.35749 -9.91239,5.1724 -1.67354,0.88147 -3.56954,1.3035 -5.72332,0.23076 -2.01034,-1.0062 -2.79202,-1.25152 -5.25556,-2.70054 -1.67771,-0.93344 -2.61531,-2.44483 -2.72965,-4.3242 -0.14553,-2.33881 -0.51766,-8.02263 -0.62369,-10.13068 -0.10186,-2.08725 0.46153,-3.59033 3.00199,-5.16408 1.15382,-0.70684 6.0123,-3.11426 7.64635,-3.89386 2.03944,-0.97502 4.95827,-1.08729 6.12872,-0.84613 0.99581,0.20789 5.75451,1.54465 7.37816,2.02489 1.47397,0.4345 1.98123,2.18497 1.94589,3.60488 -0.0749,2.67144 0.0249,10.40718 0,11.49862 z m -187.80944,16.45482 c -1.94589,-1.69642 -4.67762,-3.89801 -5.8543,-4.9853 -0.56755,-0.51973 -0.88355,-1.10392 -0.80663,-1.9937 0.73387,-7.79187 4.02067,-42.92182 4.09967,-43.8615 0.30353,-3.34293 -0.60081,-5.78153 -3.13296,-8.47376 -2.63402,-2.80033 -5.5778,-5.96032 -6.06427,-6.44888 -2.5966,-2.57788 -6.14535,-3.91256 -10.15355,-3.93127 -5.28674,-0.0208 -14.18045,-0.37629 -15.00787,-0.39084 -3.59865,-0.0769 -5.92706,0.45528 -9.16813,2.47394 -2.79202,1.74007 -6.13704,3.86475 -6.71706,4.26806 -1.95005,1.37418 -3.06852,2.80241 -3.42402,4.87512 -0.55091,3.2577 -1.4511,8.47168 -1.56544,9.24297 -0.3555,2.35544 0.60913,3.35125 2.56749,3.2473 0.65903,-0.0395 6.29088,-0.40747 9.50076,-0.59665 1.96045,-0.11019 2.88142,-0.65279 3.67349,-3.01862 0.18711,-0.57587 1.88352,-5.44267 2.81281,-8.08708 0.68189,-1.84402 1.51139,-2.36168 3.13296,-2.64234 2.19121,-0.38876 5.09341,-0.75881 5.66096,-0.83157 1.6881,-0.19542 2.77123,-0.0229 4.17451,0.89602 0.59458,0.38253 4.15581,2.87518 4.61525,3.20365 0.61953,0.4345 1.80244,1.68602 1.81076,3.46767 0,0.71516 0.16008,11.06828 0.16008,11.06828 0,0 -0.0395,1.74839 -2.11844,1.07689 -2.9521,-0.96255 -10.50489,-3.5342 -13.85407,-2.87933 -2.21199,0.44074 -6.031,1.87313 -7.13492,2.35128 -2.31802,1.00205 -5.75659,2.54463 -9.3885,4.33044 -3.84604,1.89599 -5.12043,3.0997 -5.75035,3.66309 -2.37415,2.1621 -2.4781,5.06638 -2.64441,7.75237 -0.26818,4.35746 -0.92097,13.83743 -0.90018,14.53596 0.1081,3.24106 1.16836,6.07466 4.05393,8.26379 3.95207,2.99159 9.24921,6.9395 10.09326,7.57981 2.65897,2.04984 7.70663,2.07894 10.03089,0.89811 5.12667,-2.60284 15.96627,-8.19311 16.20119,-8.32408 0.26818,-0.15384 0.66734,-0.12266 0.83365,0.41371 0.11226,0.34926 0.18503,0.60081 0.26819,0.8981 0.13097,0.53221 0.60912,1.2141 1.14757,1.66939 2.41573,2.02281 7.44261,6.33037 7.76692,6.60271 1.73384,1.47813 3.43026,1.45734 4.97699,0.61745 3.8502,-2.0831 5.90419,-3.37412 6.22227,-3.54459 1.86065,-1.0374 1.29934,-2.14963 -0.1185,-3.3866 z m -21.67712,-12.70649 c -0.88147,0.45113 -7.33034,3.75249 -10.8687,5.56741 -1.38665,0.71931 -3.29512,0.73594 -4.62149,0.0852 -0.91473,-0.45528 -3.90425,-2.02696 -5.58403,-2.83359 -1.422,-0.68605 -2.23486,-2.15586 -2.51136,-4.01652 -0.14969,-1.02283 -0.47608,-6.73992 -0.67774,-10.15146 -0.16839,-1.30766 0.25156,-3.43026 1.58208,-4.50715 0.72971,-0.58002 3.53004,-2.05815 4.97906,-2.88765 1.92926,-1.08728 4.2452,-1.98539 5.56948,-2.4968 1.975,-0.76713 3.78575,-0.56963 7.69001,0.47607 0.98333,0.26195 4.12254,1.08313 4.77948,1.49684 1.14965,0.83158 1.29102,2.15586 1.29518,3.11425 0,0.68605 0.0291,9.64421 0.0416,12.97675 0,1.36587 -0.45113,2.54047 -1.67355,3.17662 z m 140.59461,12.68154 c -1.94588,-1.69641 -4.67761,-3.90217 -5.85014,-4.97906 -0.56755,-0.52805 -0.89394,-1.11223 -0.8087,-2.00202 0.73386,-7.78771 4.02067,-42.92597 4.09967,-43.85942 0.30768,-3.34085 -0.60082,-5.77945 -3.13504,-8.48 -2.63194,-2.79201 -5.5778,-5.95408 -6.06012,-6.44055 -2.59452,-2.57789 -6.1495,-3.91673 -10.1577,-3.93544 -5.28883,-0.0208 -14.18877,-0.37421 -15.00788,-0.38876 -3.59656,-0.0832 -5.93329,0.44905 -9.17228,2.46978 -2.78786,1.75047 -6.13288,3.86475 -6.7129,4.27222 -1.95421,1.37211 -3.06852,2.80034 -3.42402,4.87096 -0.553,3.25562 -1.4511,8.46961 -1.56752,9.24921 -0.35342,2.3492 0.60913,3.34502 2.56125,3.24107 0.66111,-0.0374 6.2888,-0.40332 9.51116,-0.59666 1.95628,-0.11018 2.87102,-0.65071 3.66517,-3.01862 0.19126,-0.56963 1.88976,-5.43851 2.81697,-8.08708 0.68397,-1.8461 1.50931,-2.36375 3.13504,-2.64233 2.18912,-0.38461 5.08717,-0.75674 5.6568,-0.83158 1.69226,-0.19958 2.7733,-0.0208 4.17867,0.8981 0.5925,0.37629 4.1558,2.86894 4.61317,3.19741 0.61952,0.44074 1.80868,1.69018 1.80868,3.47184 0.006,0.70684 0.16631,11.06412 0.16631,11.06412 0,0 -0.0437,1.75255 -2.12052,1.07897 -2.95417,-0.95839 -10.50904,-3.53628 -13.8499,-2.87725 -2.21823,0.44073 -6.03725,1.87728 -7.14116,2.3492 -2.31386,1.00205 -5.75659,2.54254 -9.39266,4.33251 -3.83564,1.89392 -5.11627,3.09347 -5.74411,3.66102 -2.37415,2.16209 -2.4781,5.06638 -2.64441,7.75237 -0.26819,4.35746 -0.92098,13.83743 -0.89603,14.54427 0.10811,3.24107 1.16837,6.06635 4.05394,8.25547 3.95206,2.9916 9.24713,6.94366 10.0891,7.58398 2.66312,2.04983 7.71287,2.07478 10.03297,0.90226 5.12458,-2.61115 15.97458,-8.20142 16.19702,-8.3324 0.2765,-0.14968 0.6715,-0.1185 0.84197,0.41371 0.10811,0.34926 0.18087,0.60082 0.26195,0.8981 0.13721,0.53637 0.61745,1.21411 1.15381,1.66939 2.41989,2.02281 7.4343,6.32206 7.76485,6.60272 1.73591,1.48228 3.42609,1.45734 4.97075,0.6216 3.85435,-2.0831 5.91042,-3.37828 6.23266,-3.54875 1.84818,-1.02907 1.29102,-2.14131 -0.12682,-3.38036 z m -21.67711,-12.71272 c -0.87731,0.4636 -7.32827,3.7712 -10.87078,5.57988 -1.38042,0.71515 -3.29305,0.73802 -4.61317,0.0811 -0.92305,-0.45113 -3.90425,-2.02697 -5.58612,-2.8336 -1.42199,-0.68189 -2.23486,-2.1517 -2.50928,-4.01236 -0.15384,-1.02699 -0.47192,-6.74408 -0.67773,-10.15562 -0.17463,-1.3035 0.25155,-3.43441 1.58415,-4.50299 0.71931,-0.57586 3.52588,-2.06231 4.9749,-2.88765 1.92926,-1.0956 4.24312,-1.99162 5.57157,-2.50304 1.9646,-0.76921 3.78575,-0.56547 7.68168,0.47608 0.98542,0.27026 4.12462,1.07689 4.79404,1.49891 1.1455,0.83158 1.28686,2.15586 1.28686,3.11426 0,0.68605 0.027,9.6442 0.0353,12.97674 0.006,1.36379 -0.44698,2.53839 -1.67147,3.16831 z m 241.52511,12.73767 c -1.95005,-1.70473 -4.68801,-3.90633 -5.85014,-4.9853 -0.56755,-0.52805 -0.89394,-1.10807 -0.81702,-1.9937 0.73594,-7.79603 4.02275,-42.9239 4.10798,-43.8615 0.30561,-3.34293 -0.60497,-5.78361 -3.1392,-8.48208 -2.62778,-2.79825 -5.57364,-5.95616 -6.05387,-6.44679 -2.60492,-2.57373 -6.15159,-3.91673 -10.15979,-3.92504 -5.28674,-0.025 -14.18877,-0.37629 -15.00995,-0.39708 -3.59865,-0.0769 -5.92914,0.45321 -9.16605,2.47602 -2.79202,1.74007 -6.13495,3.86267 -6.71914,4.26391 -1.9542,1.38041 -3.06851,2.80241 -3.42193,4.88135 -0.553,3.25354 -1.45526,8.46753 -1.57168,9.24505 -0.34926,2.34712 0.61744,3.34501 2.56541,3.24107 0.66734,-0.0374 6.2888,-0.40955 9.51116,-0.59874 1.95212,-0.1081 2.87101,-0.65278 3.65893,-3.01238 0.1975,-0.57379 1.88768,-5.44475 2.81697,-8.085 0.69228,-1.8461 1.51554,-2.36584 3.14128,-2.64857 2.18912,-0.38877 5.07677,-0.75882 5.65887,-0.82534 1.69226,-0.20374 2.77331,-0.0229 4.17867,0.89394 0.58627,0.38461 4.14749,2.86894 4.61525,3.20157 0.61745,0.43658 1.8066,1.68394 1.81284,3.46767 0,0.71516 0.15176,11.06413 0.15176,11.06413 0,0 -0.0374,1.74839 -2.1122,1.07689 -2.9521,-0.95424 -10.51113,-3.53836 -13.85199,-2.87518 -2.21615,0.4449 -6.0414,1.87729 -7.14116,2.35336 -2.3097,1.00205 -5.75866,2.53839 -9.39265,4.33044 -3.84396,1.89599 -5.11835,3.09346 -5.74412,3.65685 -2.37622,2.1621 -2.47809,5.07262 -2.65065,7.75237 -0.26818,4.35746 -0.91681,13.84159 -0.89186,14.54428 0.10395,3.24106 1.16836,6.0705 4.05601,8.25547 3.94583,2.99991 9.25129,6.9395 10.08702,7.58398 2.66313,2.04983 7.71287,2.08309 10.03089,0.8981 5.11836,-2.60284 15.96627,-8.19727 16.19703,-8.31992 0.28066,-0.16216 0.66942,-0.13098 0.83366,0.40955 0.11642,0.34926 0.18918,0.60081 0.2661,0.8981 0.13929,0.53221 0.61329,1.21826 1.15797,1.67355 2.41365,2.01865 7.43429,6.3179 7.76485,6.59856 1.73591,1.48228 3.42609,1.46149 4.97074,0.6216 3.85436,-2.0831 5.91251,-3.37828 6.22227,-3.55291 1.86066,-1.02908 1.3035,-2.14547 -0.11226,-3.37828 z M 520.24676,374.2818 c -0.87732,0.45529 -7.33451,3.76496 -10.87287,5.57572 -1.38041,0.71516 -3.2972,0.73594 -4.62148,0.0852 -0.91058,-0.45113 -3.90217,-2.02697 -5.58196,-2.83776 -1.42407,-0.68189 -2.22862,-2.1517 -2.51136,-4.01235 -0.14552,-1.02284 -0.47608,-6.73577 -0.6715,-10.15147 -0.17047,-1.30766 0.2474,-3.43441 1.58416,-4.50299 0.72139,-0.58002 3.51757,-2.06646 4.97698,-2.88765 1.92926,-1.09144 4.23688,-1.98746 5.57364,-2.50512 1.96252,-0.76713 3.77536,-0.57379 7.67961,0.48439 0.9875,0.25987 4.11838,1.07482 4.78572,1.49684 1.14758,0.82326 1.28687,2.14755 1.29518,3.1101 0,0.68605 0.0291,9.64004 0.0333,12.97674 0.006,1.36587 -0.44905,2.54047 -1.66938,3.16831 z m -261.5869,-56.73222 c -1.50515,-0.0457 -4.61525,0 -6.49461,0.0728 -1.86481,0.0686 -3.51757,1.37626 -3.97701,2.93338 -3.16207,10.73773 -14.47775,49.43306 -14.94967,50.87168 -0.55299,1.68187 -1.82115,1.53842 -2.1122,0.1185 -0.29105,-1.41368 -8.85421,-49.55571 -9.15773,-50.89663 -0.37421,-1.63196 -0.85861,-2.85854 -3.80447,-2.94585 -3.51964,-0.11227 -8.8542,-0.22245 -10.59844,-0.25364 -2.69846,-0.0333 -4.35953,0.55924 -3.71298,2.97497 0.55507,2.09973 13.40501,53.43294 16.7625,66.86082 0.50726,2.02696 2.6548,2.97288 4.70672,2.71717 1.78165,-0.22245 3.71091,-0.47608 4.7088,-0.66526 2.14754,-0.38668 3.90841,-0.21205 5.96656,0.26818 0.76505,0.17879 1.68602,0.37837 2.52799,0.54469 1.41368,0.28897 3.18702,-1.31597 3.71507,-3.25147 0.45529,-1.66107 14.81245,-51.55981 18.6481,-64.91493 0.72763,-2.4968 -0.27442,-4.36577 -2.22863,-4.43438 z m 82.83956,21.7187 c -3.24731,0.0374 -8.11619,0.0915 -9.89576,0.0915 -2.75667,0 -3.90425,0.76297 -3.87514,3.78783 0.0291,2.50097 0.0894,34.62684 0.11434,45.57454 0.006,2.27021 1.32012,3.64647 3.35125,3.69844 2.04984,0.052 2.57165,0.0291 5.14538,0.10603 2.57165,0.0811 3.74833,-1.2744 3.94791,-3.5446 0.97918,-11.28033 3.91464,-45.10678 4.05185,-46.62441 0.15592,-1.82531 -1.02907,-3.11009 -2.83983,-3.0893 z m -212.7401,-13.94554 c -2.20367,-2.98328 -3.27849,-3.10801 -7.58397,-3.09554 -0.75674,0 -9.40305,0.10603 -12.66699,0.21829 -3.26394,0.12058 -5.5778,0.88147 -7.57358,2.53631 -1.247367,1.02907 -4.149567,4.65682 -4.490507,5.0248 -0.24532,0.26402 -0.73387,1.13718 -1.26192,1.03115 -0.59666,-0.12266 -0.60913,-0.69436 -0.52182,-1.70681 0.39085,-4.60693 1.59871,-23.56064 1.94797,-29.56254 0.18503,-2.03944 -0.69644,-3.62983 -3.00199,-3.62983 -0.90226,0 -9.76686,0.29313 -13.45906,0.29313 -2.00826,0 -3.21196,1.41576 -3.18494,3.36789 0.0104,0.9376 1.02908,76.44265 1.19747,88.46101 0.0145,1.01452 0.59458,1.56336 1.6881,1.54673 0.84197,0 6.9998,-0.0686 9.78558,-0.0977 0.84197,0 1.42823,-0.65071 1.42823,-1.25152 0,-0.50311 1.86065,-30.28601 2.34296,-40.42501 0.13721,-3.54459 1.38458,-7.92908 2.91468,-9.18268 1.5301,-1.24736 4.825217,-3.80238 6.253447,-4.82314 1.422,-1.02492 2.48018,-1.05818 3.64854,-1.05818 1.61534,0 4.34083,0.0644 5.71501,0.10187 1.81908,0.0561 1.84194,0.21413 3.36581,1.27854 0.75465,0.53429 1.84194,1.31597 2.79202,2.04152 1.5696,1.18916 2.30138,2.1725 2.27436,4.41775 -0.0104,0.46777 0.93968,36.21931 1.09768,44.97789 0,2.40741 0.39292,4.23896 2.83359,4.23896 0.63408,0 4.3637,0.0374 6.86467,0.0374 2.29931,0 2.45938,-1.89184 2.64233,-3.99572 0.0437,-0.5925 1.8565,-36.132 2.67976,-45.27518 0.30768,-3.8398 -0.38253,-5.70045 -2.20784,-8.22221 -0.44073,-0.61744 -3.20573,-4.14956 -5.51959,-7.24719 z m 335.724,-2.18496 c -1.5592,-1.69018 -3.56122,-2.13715 -5.62145,-2.13715 -4.46765,0 -10.63586,0.33055 -12.88943,0.46568 -3.4157,0.20166 -4.95204,1.05402 -6.53619,2.9022 -1.67563,1.95005 -4.06641,4.50922 -4.48844,4.88967 -2.2702,2.04776 -2.50512,1.2141 -2.41365,-1.0956 0.0478,-1.35755 0.40124,-5.28259 0.53637,-6.98317 0.23284,-2.99991 -1.66108,-3.74625 -4.11423,-3.76704 -2.9417,-0.0249 -6.53203,-0.0499 -8.06421,-0.0499 -4.80443,0 -5.72748,-0.0935 -5.72748,5.69838 0,4.26806 0.20374,48.78026 0.22661,62.43475 0,2.55502 1.62365,4.03106 3.37204,4.03106 1.74839,0 6.02685,-0.0603 7.31787,-0.0603 1.30142,0 2.76707,-1.59662 2.94586,-4.12877 0.7401,-10.75644 2.58828,-39.94685 2.75459,-41.69524 0.19958,-2.17249 1.18084,-3.77536 2.47602,-4.79196 2.31594,-1.82739 5.44475,-4.10383 6.45511,-5.02896 1.11224,-1.00412 2.37831,-1.3222 3.87931,-1.3222 2.46146,0 4.09343,0.0665 5.68174,0.13929 1.29726,0.0499 2.31386,0.25986 3.43857,0.91889 1.2536,0.73594 3.04357,2.9022 3.62983,3.50093 1.0166,1.0374 1.51763,1.47813 1.51763,3.43649 0,9.66292 0.74634,42.44366 0.74634,44.75752 0,2.76083 1.01244,4.14957 2.48433,4.21401 2.05816,0.0769 4.87512,0.0603 5.8543,0.0603 1.70057,0 2.69431,-1.18083 2.93339,-3.31383 1.16212,-10.00178 3.81485,-40.64745 4.17451,-44.00078 0.59458,-5.62146 -0.39708,-6.80437 -3.1101,-10.17642 -2.92091,-3.63399 -5.41772,-6.6734 -7.45924,-8.89786 z m -127.88188,-9.22011 c -5.36783,0 -9.71282,4.35123 -9.71282,9.71489 0,5.35951 4.34499,9.70658 9.71282,9.70658 5.35327,0 9.70865,-4.34707 9.70865,-9.70658 0,-5.36366 -4.35538,-9.71489 -9.70865,-9.71489 z m 259.58695,39.67243 c -1.49684,-2.2411 -1.96668,-2.13715 -9.02469,-4.00404 -3.97077,-1.0561 -17.21571,-4.65683 -20.46509,-5.5674 -4.56951,-1.2931 -5.07262,-2.01242 -5.4884,-5.57988 -0.1289,-1.16005 -0.24948,-2.89596 -0.41579,-5.12459 -0.15384,-2.07686 0.0936,-2.66728 1.90847,-3.67972 1.17044,-0.65071 5.19735,-2.96873 6.89376,-3.87931 2.10389,-1.13094 3.78368,-0.65278 6.33038,0.3659 1.30349,0.51349 5.44474,2.26188 7.00395,2.90843 1.44694,0.60498 1.43031,1.06442 3.15999,4.48428 0.81287,1.60078 2.1912,1.32221 3.21404,0.869 1.09145,-0.47608 6.25554,-3.22028 7.32827,-3.81278 2.04154,-1.15381 2.45109,-2.02905 1.70267,-3.09762 -1.04573,-1.49476 -1.24946,-1.6881 -2.01451,-2.73589 -0.84197,-1.13926 -1.47397,-1.86273 -3.05604,-3.78991 -1.80245,-2.19952 -1.58416,-1.99578 -5.36159,-2.7733 -2.6465,-0.55092 -13.30938,-2.72965 -16.50264,-3.3471 -1.8066,-0.34926 -2.77538,-0.0956 -4.59861,0.68605 -1.82947,0.78584 -9.15566,4.06641 -11.10571,4.97906 -4.56327,2.14963 -5.35743,2.18497 -5.92706,3.26394 -0.81286,1.54673 -0.48023,0.79832 -2.56125,4.90214 -2.44068,4.85225 -3.1101,5.77322 -2.6257,7.4343 0.85028,2.88349 2.60075,7.27629 4.04562,11.40091 1.48228,4.22441 1.5696,4.78364 10.13483,7.05384 4.94164,1.31182 19.90794,5.24933 21.7187,5.8543 2.94586,0.98334 3.29096,1.44902 4.53833,4.1662 0.55091,1.20579 1.30141,3.12673 1.71512,4.17036 0.69645,1.7671 1.6195,3.49262 1.24321,5.69629 -0.47192,2.72965 -3.27018,3.49678 -4.80028,4.34499 -1.82531,1.01452 -5.85221,3.02902 -8.01847,4.0082 -2.81697,1.27439 -3.1891,1.64028 -7.02058,-0.22245 -3.30344,-1.59663 -4.29925,-2.21199 -6.59025,-3.38659 -1.41576,-0.71932 -1.29102,-0.53221 -2.42196,-1.8066 -0.97295,-1.08729 -2.49057,-2.6361 -3.66933,-4.07681 -1.70058,-2.07478 -3.08307,-1.53425 -5.00817,-0.56755 -1.56129,0.77961 -7.18066,3.69844 -8.61098,4.49052 -1.33883,0.72347 -1.32844,2.00617 -0.48231,2.84191 1.58623,1.58831 5.20775,4.92501 6.46551,6.05387 2.4677,2.22447 4.39488,3.95831 6.5944,4.5508 4.36993,1.17669 11.78551,3.11426 16.78952,4.39696 6.03517,1.54674 4.61525,1.15382 9.81053,-0.91265 1.7962,-0.71516 11.70651,-4.72543 14.05779,-5.90003 2.81907,-1.40953 3.19744,-1.79413 4.54459,-6.50501 0.67358,-2.31386 2.5176,-8.85629 3.13504,-11.06828 0.7401,-2.67144 0.91474,-4.76701 -0.5135,-7.16611 -0.77752,-1.29726 -4.74624,-7.96858 -6.05181,-9.91863 z"
   id="path44"
   inkscape:connector-curvature="0"
   style="fill:#ee3124;stroke-width:2.07894087"
   inkscape:export-filename="G:\Users\suitedoalex\sites\havaianas-logo-8.png"
   inkscape:export-xdpi="70.319908"
   inkscape:export-ydpi="70.319908" /><path
   style="fill:#ffffff;stroke:none;stroke-width:1px;stroke-linecap:butt;stroke-linejoin:miter;stroke-opacity:1"
   d="m 930.87852,479.81563 c 362.97718,4.36008 362.97718,4.36008 362.97718,4.36008 l 65.4013,28.34057 -3.2701,52.32104 c 0,0 -23.9805,34.88069 -38.1507,37.06074 -14.1703,2.18004 -199.474,13.08026 -204.9241,13.08026 -5.4501,0 -171.13336,-21.80044 -171.13336,-21.80044 h -46.87093 l -23.98048,-45.78091 16.35033,-35.97071 18.53036,-35.97072 z"
   id="path904"
   inkscape:connector-curvature="0" /><path
   d="m 1334.7576,523.77889 c 0,-1.02071 -1.0045,-1.14079 -1.8386,-1.14079 h -1.6746 v 2.47468 h 1.5513 c 1.0434,0 1.9619,-0.1071 1.9619,-1.33389 z"
   id="path20"
   inkscape:connector-curvature="0"
   style="fill:#ee3124;stroke-width:1.62274146"
   inkscape:export-filename="G:\Users\suitedoalex\sites\havaianas-logo-6.png"
   inkscape:export-xdpi="72.843094"
   inkscape:export-ydpi="72.843094" /><path
   d="m 1159.0877,552.1298 c 0.028,-1.1132 -0.3683,-2.47792 -1.5189,-2.81707 -1.2673,-0.37323 -4.9802,-1.41666 -5.7591,-1.57894 -0.9136,-0.18661 -3.1935,-0.099 -4.7838,0.66209 -1.2755,0.60852 -5.0678,2.48766 -5.9685,3.0329 -1.9846,1.23003 -2.4227,2.40165 -2.3432,4.03413 0.083,1.64871 0.3732,6.08204 0.4868,7.91086 0.091,1.46696 0.8228,2.64345 2.1307,3.37206 1.9246,1.1343 2.5347,1.32091 4.1023,2.11118 1.6811,0.83734 3.1611,0.50468 4.4674,-0.18336 2.6856,-1.41341 7.0443,-3.73069 7.7372,-4.04064 1.3534,-0.60852 1.3907,-1.73957 1.4491,-3.53108 0.02,-0.8503 -0.058,-6.89015 0,-8.97213 z"
   id="path22"
   inkscape:connector-curvature="0"
   style="fill:#ee3124;stroke-width:1.62274146"
   inkscape:export-filename="G:\Users\suitedoalex\sites\havaianas-logo-6.png"
   inkscape:export-xdpi="72.843094"
   inkscape:export-ydpi="72.843094" /><path
   d="m 1088.664,548.9687 c -0.5225,-0.32941 -2.9729,-0.95741 -3.7421,-1.17 -3.041,-0.81461 -4.4625,-0.97039 -5.996,-0.37322 -1.0369,0.40244 -2.843,1.10346 -4.3489,1.9554 -1.1327,0.64098 -3.3234,1.79962 -3.8832,2.25399 -1.0402,0.83407 -1.3729,2.50063 -1.2366,3.51486 0.1607,2.66291 0.409,7.12545 0.529,7.92709 0.2142,1.45397 0.8487,2.59638 1.9587,3.13189 1.3128,0.63124 3.6398,1.85966 4.3603,2.21504 1.0304,0.50955 2.5234,0.49169 3.6009,-0.0666 2.7651,-1.41016 7.8021,-3.99357 8.4853,-4.35219 0.9574,-0.49493 1.3111,-1.41016 1.3047,-2.47468 -0.01,-2.59963 -0.028,-9.59365 -0.028,-10.1259 0,-0.75296 -0.1088,-1.78502 -1.0045,-2.43574 z"
   id="path24"
   inkscape:connector-curvature="0"
   style="fill:#ee3124;stroke-width:1.62274146"
   inkscape:export-filename="G:\Users\suitedoalex\sites\havaianas-logo-6.png"
   inkscape:export-xdpi="72.843094"
   inkscape:export-ydpi="72.843094" /><path
   d="m 1260.2608,548.98818 c -0.5193,-0.32942 -2.9648,-0.96391 -3.7356,-1.17 -3.0475,-0.82435 -4.4625,-0.9769 -5.9944,-0.37323 -1.0434,0.39919 -2.8446,1.10022 -4.3505,1.9554 -1.1376,0.64099 -3.3218,1.79637 -3.8849,2.25074 -1.0434,0.83409 -1.3696,2.49741 -1.2365,3.51486 0.1525,2.66941 0.4105,7.12871 0.5241,7.92385 0.2207,1.44911 0.8487,2.59963 1.9603,3.12865 1.3112,0.64098 3.6463,1.86939 4.3571,2.22152 1.0336,0.50793 2.5298,0.48846 3.6073,-0.0633 2.7619,-1.41989 7.8022,-4.0033 8.487,-4.35868 0.9525,-0.49169 1.3079,-1.40367 1.3014,-2.47143 0,-2.60288 -0.026,-9.5969 -0.026,-10.12916 -0.01,-0.7497 -0.1136,-1.78338 -1.0094,-2.42924 z"
   id="path26"
   inkscape:connector-curvature="0"
   style="fill:#ee3124;stroke-width:1.62274146"
   inkscape:export-filename="G:\Users\suitedoalex\sites\havaianas-logo-6.png"
   inkscape:export-xdpi="72.843094"
   inkscape:export-ydpi="72.843094" /><path
   d="m 995.8335,548.98818 c -0.5128,-0.32293 -2.9648,-0.96391 -3.7307,-1.17 -3.0459,-0.81786 -4.4609,-0.9704 -6.0025,-0.37161 -1.0353,0.3992 -2.8431,1.10347 -4.3474,1.95216 -1.131,0.64098 -3.3169,1.79638 -3.8864,2.25075 -1.0402,0.84057 -1.368,2.49739 -1.2349,3.5181 0.159,2.66616 0.4121,7.12545 0.529,7.92709 0.2158,1.4491 0.8503,2.59638 1.9602,3.13189 1.3128,0.63125 3.6463,1.85966 4.3587,2.2118 1.037,0.50791 2.525,0.49494 3.6074,-0.0633 2.7619,-1.4199 7.7956,-3.99681 8.4837,-4.3522 0.9542,-0.49493 1.3063,-1.40692 1.3063,-2.47467 -0.01,-2.6045 -0.032,-9.59364 -0.032,-10.12591 0,-0.74808 -0.1136,-1.78501 -1.011,-2.43411 z"
   id="path28"
   inkscape:connector-curvature="0"
   style="fill:#ee3124;stroke-width:1.62274146"
   inkscape:export-filename="G:\Users\suitedoalex\sites\havaianas-logo-6.png"
   inkscape:export-xdpi="72.843094"
   inkscape:export-ydpi="72.843094" /><path
   d="m 1119.4523,403.19784 c -145.5713,0 -263.58028,63.57901 -263.58028,142.01583 0,78.43359 118.00898,142.02233 263.58028,142.02233 145.5712,0 263.5802,-63.58874 263.5802,-142.02233 0,-78.43682 -118.009,-142.01583 -263.5802,-142.01583 z m -159.0027,134.6778 c -0.6426,7.13358 -2.0576,34.87921 -2.0917,35.3352 -0.1412,1.65195 -0.2678,3.12216 -2.0625,3.12216 -1.9522,0 -4.8634,-0.0324 -5.3583,-0.0324 -1.9051,0 -2.2118,-1.42314 -2.2118,-3.30552 -0.1233,-6.83661 -0.8649,-34.74289 -0.8568,-35.10801 0.023,-1.75257 -0.5485,-2.52012 -1.7753,-3.44833 -0.7416,-0.56471 -1.5903,-1.17648 -2.1794,-1.59353 -1.1894,-0.83084 -1.2073,-0.95417 -2.6272,-0.99474 -1.0726,-0.0324 -3.2,-0.0892 -4.4609,-0.0827 -0.9136,0 -1.7396,0.0259 -2.8479,0.82761 -1.1148,0.79838 -3.6869,2.79273 -4.8812,3.76475 -1.1943,0.97689 -2.168,4.39925 -2.2751,7.16603 -0.3765,7.91411 -1.8288,31.16475 -1.8288,31.55745 0,0.46573 -0.4576,0.9704 -1.1148,0.9704 -2.1745,0.0259 -6.98108,0.0731 -7.63829,0.0796 -0.85356,0.0163 -1.3063,-0.41542 -1.31766,-1.20408 -0.13145,-9.38107 -0.92658,-68.32066 -0.9347,-69.04927 -0.0228,-1.527 0.91685,-2.63046 2.48604,-2.63046 2.88201,0 9.80141,-0.22881 10.50561,-0.22881 1.7996,0 2.4893,1.24302 2.3433,2.83331 -0.2727,4.68484 -1.2155,19.47939 -1.5205,23.077 -0.068,0.78541 -0.057,1.23329 0.4073,1.3274 0.4121,0.086 0.7935,-0.59555 0.985,-0.80488 0.2661,-0.28561 2.5314,-3.11566 3.5051,-3.92055 1.5578,-1.29007 3.3639,-1.88238 5.9116,-1.97812 2.5477,-0.0892 9.2983,-0.17038 9.8874,-0.17038 3.3607,-0.0163 4.1997,0.086 5.9198,2.41464 1.8061,2.41789 3.9643,5.17491 4.3083,5.65688 1.4248,1.97001 1.9636,3.42236 1.7234,6.41955 z m 52.137,38.70888 c -0.2482,0.13631 -1.8515,1.14078 -4.8568,2.76678 -1.2074,0.65883 -2.5315,0.67181 -3.8849,-0.48196 -0.2547,-0.21583 -4.1785,-3.57491 -6.0625,-5.1506 -0.4187,-0.35861 -0.7919,-0.88763 -0.8958,-1.3063 -0.065,-0.22881 -0.1217,-0.43165 -0.2093,-0.70427 -0.1315,-0.41542 -0.4414,-0.44301 -0.6507,-0.32293 -0.1834,0.10386 -8.6444,4.46903 -12.6461,6.5007 -1.8142,0.92173 -5.7542,0.90063 -7.8297,-0.69777 -0.6588,-0.50468 -4.7936,-3.58463 -7.8784,-5.92301 -2.2524,-1.70549 -3.08,-3.91404 -3.1643,-6.44389 -0.016,-0.54525 0.4917,-7.9482 0.7026,-11.35271 0.1298,-2.0982 0.2093,-4.35868 2.0641,-6.05121 0.4901,-0.43813 1.4865,-1.37933 4.4885,-2.85602 2.835,-1.39718 5.519,-2.59638 7.3283,-3.37855 0.8601,-0.37323 3.8427,-1.49617 5.5693,-1.83856 2.6126,-0.50955 8.5096,1.49616 10.8139,2.25074 1.6228,0.52252 1.6536,-0.84383 1.6536,-0.84383 0,0 -0.1249,-8.08125 -0.1249,-8.63948 -0.01,-1.39068 -0.9282,-2.36757 -1.4135,-2.70673 -0.3586,-0.25639 -3.1399,-2.20206 -3.6024,-2.4974 -1.0954,-0.71562 -1.9425,-0.85518 -3.2585,-0.70426 -0.443,0.0568 -2.7084,0.34889 -4.4187,0.6491 -1.2658,0.22231 -1.9132,0.62474 -2.4455,2.06249 -0.7254,2.06575 -2.0495,5.85973 -2.1956,6.31734 -0.6182,1.84505 -1.3371,2.26859 -2.8673,2.35459 -2.5056,0.14605 -6.9016,0.4349 -7.416,0.46573 -1.5286,0.0827 -2.2816,-0.69777 -2.0041,-2.53634 0.091,-0.60204 0.7919,-4.67188 1.222,-7.21634 0.2774,-1.61625 1.1489,-2.73269 2.6726,-3.8037 0.4528,-0.31644 3.0638,-1.97487 5.2431,-3.33148 2.5315,-1.57893 4.3473,-1.99111 7.1563,-1.92945 0.6458,0.0163 7.5863,0.2921 11.7146,0.3067 3.1286,0.0163 5.8986,1.05154 7.9254,3.06536 0.3797,0.37972 2.6775,2.84629 4.7335,5.03699 1.9765,2.0982 2.6841,4.00006 2.4455,6.61105 -0.062,0.73185 -2.6272,28.1578 -3.2,34.23984 -0.062,0.69453 0.1866,1.14728 0.6296,1.55621 0.9185,0.84546 3.0507,2.56068 4.5696,3.89458 1.1035,0.96553 1.5416,1.83369 0.093,2.63859 z m 27.5104,-0.18337 c -0.6572,-0.12982 -1.3761,-0.28562 -1.9733,-0.42516 -1.6049,-0.3716 -2.981,-0.50955 -4.6573,-0.20934 -0.7789,0.14929 -2.2848,0.34564 -3.6755,0.52252 -1.6016,0.19635 -3.2795,-0.53875 -3.6739,-2.12417 -2.6207,-10.48128 -12.6508,-50.5484 -13.0841,-52.18736 -0.5031,-1.88888 0.7919,-2.34811 2.8982,-2.32377 1.3599,0.0259 5.5254,0.11035 8.2727,0.19635 2.2995,0.0698 2.6776,1.0272 2.9696,2.30105 0.2353,1.04667 6.921,38.62936 7.1482,39.72795 0.2272,1.10996 1.2171,1.21706 1.6487,-0.0892 0.3684,-1.12455 9.201,-31.33026 11.6692,-39.7101 0.357,-1.21706 1.6487,-2.23776 3.1043,-2.29131 1.4669,-0.0568 3.8946,-0.0925 5.0694,-0.0568 1.5254,0.0535 2.3076,1.51239 1.7412,3.45806 -2.9956,10.42774 -14.2006,49.37353 -14.556,50.6701 -0.4138,1.51402 -1.7963,2.76839 -2.9014,2.54121 z m 65.3153,0.16388 c -0.2515,0.13633 -1.8564,1.14405 -4.865,2.77004 -1.204,0.65558 -2.525,0.67505 -3.88,-0.48521 -0.258,-0.21582 -4.172,-3.57165 -6.0609,-5.15382 -0.4186,-0.35539 -0.7919,-0.88441 -0.9006,-1.30306 -0.063,-0.22882 -0.1201,-0.42516 -0.2045,-0.70428 -0.133,-0.41217 -0.4414,-0.43813 -0.6572,-0.31968 -0.1736,0.10224 -8.6427,4.46579 -12.6411,6.50396 -1.811,0.91522 -5.751,0.89413 -7.8314,-0.70428 -0.6572,-0.50142 -4.7903,-3.58464 -7.8752,-5.923 -2.2539,-1.7055 -3.0799,-3.91081 -3.1643,-6.43742 -0.02,-0.55173 0.4901,-7.95792 0.6994,-11.35919 0.1298,-2.09821 0.2126,-4.36193 2.0641,-6.04471 0.4885,-0.44625 1.4881,-1.38257 4.4837,-2.86252 2.8398,-1.39718 5.5254,-2.59963 7.3315,-3.37854 0.8601,-0.37161 3.8427,-1.49292 5.5741,-1.83532 2.6078,-0.51279 8.5064,1.49941 10.8107,2.24425 1.6211,0.52577 1.6552,-0.84058 1.6552,-0.84058 0,0 -0.1249,-8.0845 -0.1298,-8.63623 0,-1.39394 -0.9282,-2.36433 -1.4118,-2.70998 -0.357,-0.25639 -3.1384,-2.20206 -3.6008,-2.4974 -1.097,-0.71076 -1.9408,-0.85518 -3.2618,-0.69778 -0.443,0.0536 -2.7067,0.34888 -4.4154,0.64586 -1.269,0.21582 -1.9149,0.6215 -2.4471,2.06088 -0.7238,2.06575 -2.0495,5.86621 -2.1988,6.31408 -0.6199,1.84831 -1.3339,2.27184 -2.8609,2.35785 -2.5153,0.15253 -6.908,0.43813 -7.4241,0.46571 -1.5237,0.0827 -2.2751,-0.69778 -1.9992,-2.5331 0.091,-0.60527 0.7935,-4.67511 1.2236,-7.21956 0.2774,-1.61625 1.1456,-2.72621 2.6726,-3.79722 0.4528,-0.32292 3.0637,-1.97163 5.2398,-3.33798 2.5283,-1.57892 4.3522,-1.99435 7.1596,-1.92944 0.6393,0.0163 7.5863,0.29208 11.7145,0.3067 3.1287,0.0163 5.9036,1.05802 7.9288,3.0686 0.3764,0.37648 2.6775,2.84953 4.7303,5.02726 1.9781,2.11119 2.6856,4.01303 2.447,6.62079 -0.062,0.72536 -2.6255,28.15456 -3.2,34.23658 -0.067,0.68804 0.1882,1.15052 0.6312,1.55946 0.9153,0.84383 3.0476,2.55745 4.5664,3.88646 1.1051,0.97204 1.54,1.83695 0.097,2.64182 z m 14.113,-1.071 c -0.1574,1.76878 -1.0743,2.82681 -3.0816,2.76353 -2.0073,-0.0601 -2.4146,-0.0406 -4.0163,-0.0827 -1.5854,-0.0406 -2.611,-1.11807 -2.6158,-2.88686 -0.019,-8.54535 -0.067,-33.62158 -0.089,-35.57373 -0.023,-2.36109 0.873,-2.95664 3.0247,-2.95664 1.3891,0 5.1896,-0.0438 7.7243,-0.0731 1.4134,-0.0162 2.3384,0.98825 2.2167,2.41464 -0.1071,1.17974 -2.3984,27.58661 -3.1628,36.39485 z m -2.8755,-43.4343 c -4.1899,0 -7.5815,-3.39478 -7.5815,-7.5782 0,-4.18668 3.3916,-7.5847 7.5815,-7.5847 4.1786,0 7.5782,3.39802 7.5782,7.5847 0,4.18505 -3.3996,7.5782 -7.5782,7.5782 z m 87.1347,39.77015 c -0.1639,0.98175 -0.8016,3.59112 -1.9505,8.2565 -1.1505,4.66863 -3.9709,4.90879 -4.6946,5.037 -0.7254,0.12332 -1.1603,0.28559 -8.1381,1.35985 -6.9794,1.06452 -7.7486,0.48196 -8.68,0.31319 -0.9347,-0.16227 -1.2609,-0.23692 -6.1226,-1.38745 -4.4918,-1.05802 -5.0029,-1.37932 -8.7028,-5.23009 -1.5821,-1.65195 -3.2,-3.41587 -5.1976,-5.43619 -0.3862,-0.3927 -0.9234,-0.90711 -1.0483,-1.32091 -0.06,-0.22556 -0.3943,-1.09697 -0.4901,-1.36959 -0.1444,-0.41218 -0.8827,0.12657 -1.0888,0.24666 -0.1737,0.10223 -7.945,3.99032 -11.8249,6.00901 -2.7814,1.45236 -6.1243,0.81786 -8.19,-0.65559 -0.8536,-0.60528 -4.3425,-3.24548 -7.4646,-5.57249 -2.2816,-1.69902 -3.6317,-4.12663 -3.4402,-7.1498 0.031,-0.54849 0.3878,-9.20419 0.7854,-12.61357 0.3537,-3.02317 1.673,-4.69459 4.4447,-6.09501 4.2158,-2.13553 4.8828,-2.52337 8.1559,-3.9173 0.404,-0.17039 3.8734,-1.52376 5.8613,-2.17123 1.3696,-0.44301 3.0329,-0.17363 3.7388,-0.0763 4.1883,0.56796 6.4082,1.93594 8.4756,2.18746 1.6876,0.20609 1.0255,-2.11768 1.0969,-2.99558 0.083,-0.8779 -0.1217,-5.566 -0.1022,-6.11124 0.07,-2.05439 -0.7594,-2.76353 -1.7688,-3.42236 -1.514,-0.98501 -3.101,-2.15826 -3.5911,-2.4114 -0.8081,-0.41867 -1.2674,-0.69454 -3.755,-0.3927 -1.3015,0.15253 -1.7023,0.31319 -3.7567,0.59554 -1.2625,0.17039 -2.0511,1.16676 -2.5266,2.59963 -0.6523,2.05115 -1.9521,5.43619 -2.0836,5.87595 -0.555,1.83532 -1.4134,2.19882 -2.9193,2.28482 -2.4747,0.14929 -6.8041,0.43814 -7.3153,0.46573 -1.5075,0.086 -2.2686,-0.68805 -2.0609,-2.51363 0.271,-2.35135 0.9818,-4.84226 1.2885,-7.04919 0.219,-1.61301 0.7416,-2.76028 2.3221,-3.65441 0.9591,-0.542 4.3425,-3.10593 6.8236,-4.42522 2.5656,-1.36959 2.3141,-1.29981 5.0938,-1.23977 0.6345,0.0195 8.6557,0.26613 12.7369,0.27911 3.2877,0.0163 5.1571,0.59555 7.0589,2.43411 0.3863,0.37648 2.8236,2.95015 4.9218,5.13111 2.0155,2.08523 1.6406,4.11365 1.4946,6.70354 -0.041,0.72862 -0.865,27.72941 -1.2349,33.77412 -0.04,0.6913 0.271,1.97163 0.4478,2.44385 1.0272,2.85603 2.1258,4.63942 2.5688,5.35992 1.7883,3.00856 3.1125,4.04711 6.5007,4.75139 2.4828,0.50467 3.1595,0.41217 5.7754,0.10385 1.4588,-0.16552 2.4665,-0.36188 5.4427,-1.64546 3.0231,-1.29982 2.8024,-3.21952 3.2568,-6.46825 0.3943,-2.85602 1.3371,-3.16272 2.9518,-3.31851 0.774,-0.0762 2.1355,-0.17039 5.0516,-0.32616 2.9193,-0.14605 2.0121,1.78501 1.8531,2.75703 z m 20.9382,-32.84105 c -0.2807,2.61424 -2.3513,26.53832 -3.2584,34.34695 -0.1866,1.66006 -0.9623,2.58665 -2.2897,2.58665 -0.7659,0 -2.9631,0.0163 -4.5696,-0.0503 -1.1489,-0.0503 -1.9392,-1.1343 -1.9392,-3.29255 0,-1.79962 -0.5826,-27.39025 -0.5826,-34.92951 0,-1.53024 -0.3911,-1.87589 -1.1846,-2.68401 -0.4576,-0.46898 -1.8548,-2.15825 -2.8333,-2.7327 -0.8779,-0.51278 -1.6714,-0.6783 -2.684,-0.72212 -1.2414,-0.0568 -2.5153,-0.10385 -4.435,-0.10385 -1.1716,0 -2.1598,0.24341 -3.028,1.03044 -0.787,0.72211 -3.2293,2.50064 -5.0386,3.92703 -1.011,0.7919 -1.7785,2.04465 -1.9327,3.74042 -0.1298,1.3631 -1.5724,24.15126 -2.1501,32.54408 -0.1396,1.97812 -1.2836,3.21952 -2.2994,3.21952 -1.0078,0 -4.349,0.0503 -5.7121,0.0503 -1.3647,0 -2.6321,-1.15376 -2.6321,-3.14649 -0.019,-10.65492 -0.1769,-45.40431 -0.1769,-48.7358 0,-4.51933 0.7205,-4.44631 4.4707,-4.44631 1.196,0 3.9984,0.0228 6.2946,0.0373 1.9165,0.0195 3.3948,0.5988 3.2114,2.94204 -0.1055,1.33065 -0.3797,4.39276 -0.4187,5.44754 -0.071,1.80287 0.112,2.46008 1.884,0.86167 0.3295,-0.29858 2.1972,-2.29779 3.5035,-3.81668 1.2382,-1.44586 2.4374,-2.11119 5.1019,-2.26859 1.7591,-0.10386 6.5738,-0.36512 10.061,-0.36512 1.6082,0 3.1709,0.35538 4.3879,1.6698 1.5936,1.73633 3.5441,4.11041 5.8257,6.94696 2.1128,2.63046 2.8885,3.55704 2.4244,7.94331 z m 52.2848,37.59243 c -0.2418,0.13307 -1.8499,1.14403 -4.8569,2.77003 -1.2041,0.65883 -2.525,0.67181 -3.88,-0.48521 -0.258,-0.21907 -4.1769,-3.57165 -6.0609,-5.14734 -0.4252,-0.35861 -0.7935,-0.89412 -0.9039,-1.31279 -0.06,-0.22881 -0.1168,-0.42516 -0.2077,-0.69778 -0.1282,-0.42516 -0.4333,-0.44301 -0.6507,-0.32293 -0.1801,0.10224 -8.6476,4.46579 -12.6428,6.49746 -1.8093,0.92172 -5.751,0.90062 -7.8297,-0.69778 -0.6523,-0.50791 -4.7936,-3.58138 -7.8736,-5.91976 -2.2556,-1.71199 -3.0848,-3.9173 -3.1659,-6.44715 -0.021,-0.54849 0.4868,-7.95143 0.6961,-11.3527 0.1347,-2.09495 0.2159,-4.36355 2.069,-6.05282 0.4885,-0.43814 1.4832,-1.37284 4.4837,-2.84954 2.8365,-1.40367 5.527,-2.59963 7.3315,-3.38179 0.8568,-0.37161 3.8427,-1.49292 5.5741,-1.83532 2.6078,-0.51928 8.5081,1.49617 10.8124,2.24425 1.6195,0.52252 1.6487,-0.84383 1.6487,-0.84383 0,0 -0.1185,-8.07963 -0.1185,-8.63622 -0.01,-1.39069 -0.9331,-2.36434 -1.415,-2.70674 -0.3651,-0.25964 -3.1449,-2.19881 -3.6025,-2.50065 -1.097,-0.71075 -1.9392,-0.85193 -3.2617,-0.69778 -0.4528,0.0536 -2.7084,0.34565 -4.4171,0.64586 -1.2674,0.22231 -1.9116,0.628 -2.452,2.06575 -0.7237,2.0625 -2.0446,5.85971 -2.1988,6.31084 -0.615,1.84505 -1.3307,2.27184 -2.856,2.3546 -2.5153,0.14605 -6.9032,0.43814 -7.4241,0.46573 -1.5221,0.086 -2.2751,-0.69778 -2.0024,-2.52986 0.091,-0.60528 0.7951,-4.67512 1.2268,-7.21633 0.2758,-1.62275 1.1456,-2.7327 2.671,-3.8102 0.456,-0.31318 3.067,-1.96839 5.2447,-3.32824 2.5266,-1.57893 4.3473,-1.99435 7.1547,-1.93269 0.6393,0.0163 7.5895,0.29534 11.7161,0.31319 3.1287,0 5.8971,1.05154 7.9304,3.06212 0.3765,0.37972 2.6743,2.84628 4.7254,5.03049 1.9781,2.10795 2.6889,4.0098 2.4504,6.62079 -0.067,0.73186 -2.6321,28.15457 -3.2066,34.2366 -0.06,0.69129 0.1931,1.14728 0.6378,1.55621 0.9087,0.84383 3.0442,2.56069 4.5663,3.89133 1.1035,0.96716 1.5384,1.83856 0.088,2.6402 z m 47.397,-15.37872 c -0.4819,1.72984 -1.9213,6.83661 -2.4471,8.63947 -1.0515,3.68039 -1.3469,3.98059 -3.5473,5.08081 -1.8353,0.9136 -9.5709,4.04712 -10.973,4.60534 -4.0552,1.60976 -2.9453,1.91808 -7.6577,0.71076 -3.9059,-1.00123 -9.6959,-2.51363 -13.1053,-3.43534 -1.7168,-0.46248 -3.2211,-1.80936 -5.1473,-3.55218 -0.9817,-0.88115 -3.8102,-3.48078 -5.0467,-4.72218 -0.6605,-0.65235 -0.6686,-1.65682 0.3765,-2.21829 1.1164,-0.61826 5.5027,-2.89335 6.7214,-3.50512 1.5042,-0.75457 2.5817,-1.17324 3.9091,0.44301 0.9185,1.12455 2.1047,2.3335 2.8642,3.17895 0.8827,0.99799 0.7854,0.8487 1.8905,1.4134 1.7882,0.91524 2.5655,1.39718 5.1441,2.64671 2.9907,1.45398 3.2811,1.16674 5.48,0.17363 1.6909,-0.76756 4.8341,-2.33837 6.2589,-3.13189 1.1927,-0.66208 3.3785,-1.26088 3.7469,-3.39153 0.2953,-1.71848 -0.4268,-3.06536 -0.9704,-4.44307 -0.3229,-0.81461 -0.9104,-2.31727 -1.3388,-3.25846 -0.9736,-2.12093 -1.243,-2.48442 -3.5424,-3.24873 -1.4134,-0.47546 -13.0955,-3.55057 -16.9528,-4.56964 -6.6857,-1.77528 -6.7539,-2.2118 -7.9109,-5.50921 -1.1278,-3.21951 -2.4941,-6.64675 -3.1578,-8.89911 -0.3781,-1.29657 0.1444,-2.01545 2.0495,-5.80293 1.6244,-3.20492 1.3663,-2.61748 1.9992,-3.82805 0.443,-0.84383 1.0629,-0.86817 4.6265,-2.5477 1.5221,-0.71077 7.2406,-3.27145 8.6686,-3.88647 1.4232,-0.60852 2.1794,-0.80488 3.5895,-0.53226 2.4909,0.48196 10.814,2.18421 12.8814,2.61099 2.9485,0.60529 2.7781,0.44626 4.185,2.16474 1.2349,1.50915 1.7266,2.069 2.3854,2.95664 0.5972,0.8211 0.7562,0.97364 1.5725,2.13552 0.5825,0.83734 0.2645,1.51889 -1.329,2.41789 -0.839,0.46897 -4.8683,2.6045 -5.7202,2.97611 -0.7984,0.35537 -1.8743,0.57444 -2.5088,-0.67831 -1.3501,-2.66616 -1.3355,-3.02641 -2.4665,-3.49863 -1.2171,-0.50792 -4.4496,-1.8694 -5.4671,-2.2686 -1.9878,-0.79839 -3.299,-1.16999 -4.9412,-0.28559 -1.3242,0.71075 -4.469,2.52011 -5.381,3.02641 -1.4167,0.79189 -1.6098,1.25113 -1.4897,2.87224 0.1298,1.73959 0.2256,3.0962 0.3246,4.00007 0.3245,2.78624 0.7156,3.34446 4.284,4.35218 2.5363,0.71239 12.8732,3.5246 15.9743,4.34571 5.5075,1.46047 5.8759,1.37933 7.0443,3.1254 1.0191,1.527 4.1169,6.73113 4.7303,7.74859 1.1099,1.86778 0.972,3.5035 0.3943,5.58872 z m 8.3523,-28.02312 c -4.3928,0 -7.5198,-3.28605 -7.5198,-7.64149 0,-4.59236 3.4726,-7.63824 7.5198,-7.63824 4,0 7.4743,3.04588 7.4743,7.63824 0,4.6021 -3.4743,7.64149 -7.4743,7.64149 z"
   id="path30"
   inkscape:connector-curvature="0"
   style="fill:#ee3124;stroke-width:1.62274146"
   inkscape:export-filename="G:\Users\suitedoalex\sites\havaianas-logo-6.png"
   inkscape:export-xdpi="72.843094"
   inkscape:export-ydpi="72.843094" /><path
   d="m 1332.7568,519.2271 c -3.3088,0 -5.8874,2.5899 -5.8874,6.31084 0,3.4678 2.2443,6.31409 5.8874,6.31409 3.2682,0 5.8418,-2.57367 5.8418,-6.31409 0,-3.72094 -2.5736,-6.31084 -5.8418,-6.31084 z m 1.9813,10.68412 -2.1858,-3.6187 h -1.3079 v 3.6187 h -1.3907 v -8.46258 h 3.2114 c 2.0398,0 3.0767,0.71562 3.0767,2.43411 0,1.53024 -0.938,2.16473 -2.2021,2.30753 l 2.3692,3.72093 z"
   id="path32"
   inkscape:connector-curvature="0"
   style="fill:#ee3124;stroke-width:1.62274146"
   inkscape:export-filename="G:\Users\suitedoalex\sites\havaianas-logo-6.png"
   inkscape:export-xdpi="72.843094"
   inkscape:export-ydpi="72.843094" /></svg>